<svg width="15" height="15" viewBox="0 0 15 15" fill="none" xmlns="http://www.w3.org/2000/svg">
<g id="Activity">
<path id="Fill 1" fill-rule="evenodd" clip-rule="evenodd" d="M3.81086 9.66858C3.70419 9.66858 3.59686 9.63458 3.50619 9.56525C3.28752 9.39658 3.24619 9.08258 3.41486 8.86391L5.41019 6.27058C5.49152 6.16458 5.61219 6.09591 5.74419 6.07925C5.87886 6.06191 6.01086 6.09925 6.11553 6.18258L7.99552 7.65925L9.64019 5.53725C9.80953 5.31791 10.1229 5.27725 10.3415 5.44791C10.5602 5.61725 10.6002 5.93125 10.4309 6.14925L8.47752 8.66925C8.39619 8.77458 8.27619 8.84325 8.14419 8.85925C8.01086 8.87725 7.87886 8.83858 7.77353 8.75658L5.89486 7.28058L4.20752 9.47325C4.10886 9.60125 3.96086 9.66858 3.81086 9.66858Z" fill="#60626E"/>
<g id="Group 5">
<mask id="mask0_343_118" style="mask-type:luminance" maskUnits="userSpaceOnUse" x="10" y="0" width="5" height="4">
<path id="Clip 4" fill-rule="evenodd" clip-rule="evenodd" d="M10.5302 0.333374H14.0928V3.89664H10.5302V0.333374Z" fill="white"/>
</mask>
<g mask="url(#mask0_343_118)">
<path id="Fill 3" fill-rule="evenodd" clip-rule="evenodd" d="M12.3115 1.33325C11.8808 1.33325 11.5302 1.68325 11.5302 2.11459C11.5302 2.54525 11.8808 2.89659 12.3115 2.89659C12.7422 2.89659 13.0928 2.54525 13.0928 2.11459C13.0928 1.68325 12.7422 1.33325 12.3115 1.33325ZM12.3115 3.89658C11.3295 3.89658 10.5302 3.09725 10.5302 2.11459C10.5302 1.13192 11.3295 0.333252 12.3115 0.333252C13.2942 0.333252 14.0928 1.13192 14.0928 2.11459C14.0928 3.09725 13.2942 3.89658 12.3115 3.89658Z" fill="#60626E"/>
</g>
</g>
<g id="Group 8">
<mask id="mask1_343_118" style="mask-type:luminance" maskUnits="userSpaceOnUse" x="0" y="0" width="14" height="15">
<path id="Clip 7" fill-rule="evenodd" clip-rule="evenodd" d="M0.333313 0.894653H13.5746V14.1353H0.333313V0.894653Z" fill="white"/>
</mask>
<g mask="url(#mask1_343_118)">
<path id="Fill 6" fill-rule="evenodd" clip-rule="evenodd" d="M9.82192 14.1353H4.08592C1.84125 14.1353 0.333252 12.5587 0.333252 10.212V4.82399C0.333252 2.47399 1.84125 0.894653 4.08592 0.894653H8.93125C9.20725 0.894653 9.43125 1.11865 9.43125 1.39465C9.43125 1.67065 9.20725 1.89465 8.93125 1.89465H4.08592C2.41392 1.89465 1.33325 3.04399 1.33325 4.82399V10.212C1.33325 12.0153 2.38792 13.1353 4.08592 13.1353H9.82192C11.4939 13.1353 12.5746 11.988 12.5746 10.212V5.51932C12.5746 5.24332 12.7986 5.01932 13.0746 5.01932C13.3506 5.01932 13.5746 5.24332 13.5746 5.51932V10.212C13.5746 12.5587 12.0666 14.1353 9.82192 14.1353Z" fill="#60626E"/>
</g>
</g>
</g>
</svg>
