<svg width="16" height="16" viewBox="0 0 16 16" fill="none" xmlns="http://www.w3.org/2000/svg">
<g id="Iconly/Light-Outline/Call">
<path id="Stroke 5" fill-rule="evenodd" clip-rule="evenodd" d="M2.19246 2.72527L2.24082 2.67473C3.52577 1.38967 4.36254 1.04905 5.25536 1.56246C5.51218 1.71014 5.75295 1.91686 6.08034 2.24938L7.08459 3.29073C7.63927 3.89599 7.76537 4.47656 7.58475 5.15648L7.55987 5.24649L7.53225 5.33599L7.398 5.72987C7.11066 6.61319 7.23062 7.11156 8.25295 8.13363C9.31609 9.19649 9.81235 9.28344 10.7638 8.95096L10.9334 8.89202L11.1384 8.82543L11.2282 8.80052C11.9509 8.60771 12.5613 8.76158 13.2088 9.40858L14.0179 10.1902L14.2561 10.4244C14.5202 10.6937 14.6947 10.9071 14.8236 11.1326C15.3338 12.0252 14.9929 12.8614 13.6709 14.1785L13.5451 14.306C13.3477 14.4962 13.1633 14.6325 12.8924 14.7611C12.4376 14.977 11.9004 15.0584 11.2761 14.9716C9.7378 14.7577 7.78675 13.5439 5.31457 11.0723C5.11332 10.8712 4.92058 10.6739 4.73615 10.4804L4.3783 10.0984C1.02506 6.45527 0.729238 4.21729 2.10343 2.81371L2.19246 2.72527ZM5.27092 2.85399C5.05373 2.63986 4.89595 2.50933 4.75686 2.42935C4.44917 2.25241 4.11698 2.3272 3.50218 2.85636L3.309 3.02894C3.2753 3.06004 3.24084 3.09233 3.20557 3.12583L2.98405 3.34158L2.96409 3.36652L2.81392 3.51739C2.45102 3.88807 2.27912 4.34047 2.42725 5.11849C2.67032 6.39517 3.78293 8.12706 6.02158 10.3651C8.35417 12.6971 10.1314 13.8028 11.4139 13.9811C12.1615 14.0851 12.5428 13.9041 12.9317 13.5056L13.2282 13.2064C13.3673 13.0608 13.4861 12.9289 13.5865 12.8084L13.7233 12.636C14.0731 12.1701 14.1051 11.8906 13.9555 11.6289C13.8986 11.5293 13.8158 11.4202 13.6952 11.2867L13.5317 11.1141L13.435 11.0172L12.4142 10.0315C12.073 9.71692 11.8399 9.67229 11.486 9.76672L11.3838 9.79611L10.9609 9.93966C9.73417 10.3359 8.84918 10.1437 7.54594 8.84083C6.19618 7.49141 6.03788 6.59029 6.49013 5.29282L6.51914 5.20945L6.59937 4.96773L6.6388 4.81366C6.70874 4.47835 6.62889 4.24456 6.26844 3.88405L6.21896 3.83418L5.27092 2.85399Z" fill="white"/>
</g>
</svg>
